{"title":"Skrillex - Reason EP","uid":7983104,"size":95324116,"categoryP":"audio","categoryS":"flac","magnet":"?xt=urn:btih:2d96fcad4d7bcf10c787a47c1ff319907aa6767f&amp;dn=Skrillex+-+Reason+EP&amp;tr=udp%3A%2F%2Ftracker.openbittorrent.com%3A80&amp;tr=udp%3A%2F%2Fopen.demonii.com%3A1337&amp;tr=udp%3A%2F%2Ftracker.coppersurfer.tk%3A6969&amp;tr=udp%3A%2F%2Fexodus.desync.com%3A6969","seeders":2,"leechers":0,"uploader":"H4N1","files":3,"time":1357225907,"description":"The Reason\nAudio\nFormat                           : FLAC\nFormat/Info                      : Free Lossless Audio Codec\nDuration                         : 4mn 16s\nBit rate mode                    : Variable\nBit rate                         : 1 055 Kbps\nChannel(s)                       : 2 channels\nSampling rate                    : 44.1 KHz\nBit depth                        : 16 bits\nStream size                      : 32.3 MiB (100%)\n\nScary Bolly Dub\nAudio\nFormat                           : FLAC\nFormat/Info                      : Free Lossless Audio Codec\nDuration                         : 3mn 39s\nBit rate mode                    : Variable\nBit rate                         : 1 134 Kbps\nChannel(s)                       : 2 channels\nSampling rate                    : 44.1 KHz\nBit depth                        : 16 bits\nStream size                      : 29.7 MiB (100%)\n\nLeaving\nAudio\nFormat                           : FLAC\nFormat/Info                      : Free Lossless Audio Codec\nDuration                         : 4mn 46s\nBit rate mode                    : Variable\nBit rate                         : 848 Kbps\nChannel(s)                       : 2 channels\nSampling rate                    : 44.1 KHz\nBit depth                        : 16 bits\nStream size                      : 29.0 MiB (100%)\n\nMy Old Account Eestiasi2\n\nWhat IS Flac http://en.wikipedia.org/wiki/Flac\n\nNo Image :(\t","torrent":{"xt":"urn:btih:2d96fcad4d7bcf10c787a47c1ff319907aa6767f","amp;dn":"Skrillex+-+Reason+EP","amp;tr":["udp%3A%2F%2Ftracker.openbittorrent.com%3A80","udp%3A%2F%2Fopen.demonii.com%3A1337","udp%3A%2F%2Ftracker.coppersurfer.tk%3A6969","udp%3A%2F%2Fexodus.desync.com%3A6969"],"infoHash":"2d96fcad4d7bcf10c787a47c1ff319907aa6767f","infoHashBuffer":{"type":"Buffer","data":[45,150,252,173,77,123,207,16,199,135,164,124,31,243,25,144,122,166,118,127]},"announce":[],"urlList":[]}}